  0
SECTION
  2
HEADER
  9
$ANGBASE
  50
0.0
  9
$ANGDIR
  70
1
  9
$MEASUREMENT
  70
1
  0
ENDSEC
  0
SECTION
  2
TABLES
  0
TABLE
  2
LTYPE
  70
4
  0
LTYPE
  5
40F
  2
CONTINUOUS
  70
0
  3
Solid line
  72
65
  73
0
  40
0.0
  0
LTYPE
  5
410
  2
DASHDOT
 70
0
  3
Dash Dot ____ _ ____ _
 72
65
 73
4
 40
2.0
 49
1.25
 49
-0.25
 49
0.25
 49
-0.25
  0
LTYPE
  5
411
  2
DASHED
 70
0
  3
Dashed __ __ __ __ __
 72
65
 73
2
 40
0.75
 49
0.5
 49
-0.25
  0
LTYPE
  5
43B
  2
DOTTED
 70
0
  3
Dotted .  .  .  .
 72
65
 73
2
 40
0.2
 49
0.0
 49
-0.2
  0
ENDTAB
  0
TABLE
  2
STYLE
  70
4
  0
STYLE
  2
KICAD
  70
0
  40
0
  41
1
  42
1
  50
0
  71
0
  3
isocp.shx
  0
STYLE
  2
KICADB
  70
0
  40
0
  41
1
  42
1
  50
0
  71
0
  3
isocp.shx
  0
STYLE
  2
KICADI
  70
0
  40
0
  41
1
  42
1
  50
15
  71
0
  3
isocp.shx
  0
STYLE
  2
KICADBI
  70
0
  40
0
  41
1
  42
1
  50
15
  71
0
  3
isocp.shx
  0
ENDTAB
  0
TABLE
  2
LAYER
  70
1
  0
LAYER
  2
BLACK
  70
0
  62
7
  6
CONTINUOUS
  0
ENDTAB
  0
ENDSEC
  0
SECTION
  2
ENTITIES
0
LINE
8
BLACK
6
CONTINUOUS
10
202.5
20
-91.7000000000000028
11
202.5
21
-83.8999999999999915
0
ARC
8
BLACK
10
197.5
20
-139.4000000000000057
40
1.
50
-90.00000000
51
-0.00000000
0
LINE
8
BLACK
6
CONTINUOUS
10
198.5
20
-79.8999999999999915
11
198.5
21
-57.3999999999999986
0
LINE
8
BLACK
6
CONTINUOUS
10
202.5
20
-109.8999999999999915
11
198.5
21
-113.8999999999999915
0
ARC
8
BLACK
10
97.5
20
-139.4000000000000057
40
1.
50
-180.00000000
51
-90.00000000
0
ARC
8
BLACK
10
197.5
20
-57.3999999999999986
40
1.
50
0.00000000
51
90.00000000
0
ARC
8
BLACK
10
97.5
20
-57.3999999999999986
40
1.
50
90.00000000
51
180.00000000
0
LINE
8
BLACK
6
CONTINUOUS
10
158.
20
-140.4000000000000057
11
155.
21
-137.4000000000000057
0
LINE
8
BLACK
6
CONTINUOUS
10
198.5
20
-91.7000000000000028
11
202.5
21
-91.7000000000000028
0
LINE
8
BLACK
6
CONTINUOUS
10
96.5
20
-91.7000000000000028
11
92.5
21
-91.7000000000000028
0
LINE
8
BLACK
6
CONTINUOUS
10
198.5
20
-91.7000000000000028
11
198.5
21
-102.0999999999999943
0
LINE
8
BLACK
6
CONTINUOUS
10
96.5
20
-79.8999999999999915
11
96.5
21
-57.3999999999999986
0
LINE
8
BLACK
6
CONTINUOUS
10
92.5
20
-91.7000000000000028
11
92.5
21
-83.8999999999999915
0
LINE
8
BLACK
6
CONTINUOUS
10
92.5
20
-102.0999999999999943
11
92.5
21
-109.8999999999999915
0
LINE
8
BLACK
6
CONTINUOUS
10
96.5
20
-91.7000000000000028
11
96.5
21
-102.0999999999999943
0
LINE
8
BLACK
6
CONTINUOUS
10
202.5
20
-91.7000000000000028
11
202.5
21
-83.8999999999999915
0
LINE
8
BLACK
6
CONTINUOUS
10
137.
20
-140.4000000000000057
11
140.
21
-137.4000000000000057
0
LINE
8
BLACK
6
CONTINUOUS
10
96.5
20
-102.0999999999999943
11
92.5
21
-102.0999999999999943
0
LINE
8
BLACK
6
CONTINUOUS
10
92.5
20
-109.8999999999999915
11
96.5
21
-113.8999999999999915
0
LINE
8
BLACK
6
CONTINUOUS
10
97.5
20
-56.3999999999999986
11
197.5
21
-56.3999999999999986
0
LINE
8
BLACK
6
CONTINUOUS
10
202.5
20
-83.8999999999999915
11
198.5
21
-79.8999999999999915
0
LINE
8
BLACK
6
CONTINUOUS
10
97.5
20
-140.4000000000000057
11
137.
21
-140.4000000000000057
0
LINE
8
BLACK
6
CONTINUOUS
10
155.
20
-137.4000000000000057
11
140.
21
-137.4000000000000057
0
LINE
8
BLACK
6
CONTINUOUS
10
198.5
20
-91.7000000000000028
11
202.5
21
-91.7000000000000028
0
LINE
8
BLACK
6
CONTINUOUS
10
202.5
20
-102.0999999999999943
11
202.5
21
-109.8999999999999915
0
LINE
8
BLACK
6
CONTINUOUS
10
96.5
20
-113.8999999999999915
11
96.5
21
-139.4000000000000057
0
LINE
8
BLACK
6
CONTINUOUS
10
198.5
20
-102.0999999999999943
11
202.5
21
-102.0999999999999943
0
LINE
8
BLACK
6
CONTINUOUS
10
197.5
20
-140.4000000000000057
11
158.
21
-140.4000000000000057
0
LINE
8
BLACK
6
CONTINUOUS
10
92.5
20
-83.8999999999999915
11
96.5
21
-79.8999999999999915
0
LINE
8
BLACK
6
CONTINUOUS
10
198.5
20
-113.8999999999999915
11
198.5
21
-139.4000000000000057
  0
ENDSEC
  0
EOF
