%TF.GenerationSoftware,KiCad,Pcbnew,(6.0.11)*%
%TF.CreationDate,2023-05-11T22:28:03+02:00*%
%TF.ProjectId,Sharp_display,53686172-705f-4646-9973-706c61792e6b,rev?*%
%TF.SameCoordinates,Original*%
%TF.FileFunction,Legend,Top*%
%TF.FilePolarity,Positive*%
%FSLAX46Y46*%
G04 Gerber Fmt 4.6, Leading zero omitted, Abs format (unit mm)*
G04 Created by KiCad (PCBNEW (6.0.11)) date 2023-05-11 22:28:03*
%MOMM*%
%LPD*%
G01*
G04 APERTURE LIST*
%ADD10C,0.150000*%
%ADD11C,0.254000*%
%ADD12C,0.120000*%
%ADD13C,0.100000*%
G04 APERTURE END LIST*
D10*
X61761904Y-122059523D02*
X62047619Y-122154761D01*
X62523809Y-122154761D01*
X62714285Y-122059523D01*
X62809523Y-121964285D01*
X62904761Y-121773809D01*
X62904761Y-121583333D01*
X62809523Y-121392857D01*
X62714285Y-121297619D01*
X62523809Y-121202380D01*
X62142857Y-121107142D01*
X61952380Y-121011904D01*
X61857142Y-120916666D01*
X61761904Y-120726190D01*
X61761904Y-120535714D01*
X61857142Y-120345238D01*
X61952380Y-120250000D01*
X62142857Y-120154761D01*
X62619047Y-120154761D01*
X62904761Y-120250000D01*
X63761904Y-122154761D02*
X63761904Y-120154761D01*
X64619047Y-122154761D02*
X64619047Y-121107142D01*
X64523809Y-120916666D01*
X64333333Y-120821428D01*
X64047619Y-120821428D01*
X63857142Y-120916666D01*
X63761904Y-121011904D01*
X66428571Y-122154761D02*
X66428571Y-121107142D01*
X66333333Y-120916666D01*
X66142857Y-120821428D01*
X65761904Y-120821428D01*
X65571428Y-120916666D01*
X66428571Y-122059523D02*
X66238095Y-122154761D01*
X65761904Y-122154761D01*
X65571428Y-122059523D01*
X65476190Y-121869047D01*
X65476190Y-121678571D01*
X65571428Y-121488095D01*
X65761904Y-121392857D01*
X66238095Y-121392857D01*
X66428571Y-121297619D01*
X67380952Y-122154761D02*
X67380952Y-120821428D01*
X67380952Y-121202380D02*
X67476190Y-121011904D01*
X67571428Y-120916666D01*
X67761904Y-120821428D01*
X67952380Y-120821428D01*
X68619047Y-120821428D02*
X68619047Y-122821428D01*
X68619047Y-120916666D02*
X68809523Y-120821428D01*
X69190476Y-120821428D01*
X69380952Y-120916666D01*
X69476190Y-121011904D01*
X69571428Y-121202380D01*
X69571428Y-121773809D01*
X69476190Y-121964285D01*
X69380952Y-122059523D01*
X69190476Y-122154761D01*
X68809523Y-122154761D01*
X68619047Y-122059523D01*
X72904761Y-122154761D02*
X71952380Y-122154761D01*
X71952380Y-120154761D01*
X73476190Y-122059523D02*
X73761904Y-122154761D01*
X74238095Y-122154761D01*
X74428571Y-122059523D01*
X74523809Y-121964285D01*
X74619047Y-121773809D01*
X74619047Y-121583333D01*
X74523809Y-121392857D01*
X74428571Y-121297619D01*
X74238095Y-121202380D01*
X73857142Y-121107142D01*
X73666666Y-121011904D01*
X73571428Y-120916666D01*
X73476190Y-120726190D01*
X73476190Y-120535714D01*
X73571428Y-120345238D01*
X73666666Y-120250000D01*
X73857142Y-120154761D01*
X74333333Y-120154761D01*
X74619047Y-120250000D01*
X75857142Y-120154761D02*
X76047619Y-120154761D01*
X76238095Y-120250000D01*
X76333333Y-120345238D01*
X76428571Y-120535714D01*
X76523809Y-120916666D01*
X76523809Y-121392857D01*
X76428571Y-121773809D01*
X76333333Y-121964285D01*
X76238095Y-122059523D01*
X76047619Y-122154761D01*
X75857142Y-122154761D01*
X75666666Y-122059523D01*
X75571428Y-121964285D01*
X75476190Y-121773809D01*
X75380952Y-121392857D01*
X75380952Y-120916666D01*
X75476190Y-120535714D01*
X75571428Y-120345238D01*
X75666666Y-120250000D01*
X75857142Y-120154761D01*
X78238095Y-120821428D02*
X78238095Y-122154761D01*
X77761904Y-120059523D02*
X77285714Y-121488095D01*
X78523809Y-121488095D01*
X80142857Y-120821428D02*
X80142857Y-122154761D01*
X79666666Y-120059523D02*
X79190476Y-121488095D01*
X80428571Y-121488095D01*
X82523809Y-122345238D02*
X82333333Y-122250000D01*
X82142857Y-122059523D01*
X81857142Y-121773809D01*
X81666666Y-121678571D01*
X81476190Y-121678571D01*
X81571428Y-122154761D02*
X81380952Y-122059523D01*
X81190476Y-121869047D01*
X81095238Y-121488095D01*
X81095238Y-120821428D01*
X81190476Y-120440476D01*
X81380952Y-120250000D01*
X81571428Y-120154761D01*
X81952380Y-120154761D01*
X82142857Y-120250000D01*
X82333333Y-120440476D01*
X82428571Y-120821428D01*
X82428571Y-121488095D01*
X82333333Y-121869047D01*
X82142857Y-122059523D01*
X81952380Y-122154761D01*
X81571428Y-122154761D01*
X83095238Y-120154761D02*
X84428571Y-120154761D01*
X83571428Y-122154761D01*
X85190476Y-122154761D02*
X85190476Y-120154761D01*
X85666666Y-120154761D01*
X85952380Y-120250000D01*
X86142857Y-120440476D01*
X86238095Y-120630952D01*
X86333333Y-121011904D01*
X86333333Y-121297619D01*
X86238095Y-121678571D01*
X86142857Y-121869047D01*
X85952380Y-122059523D01*
X85666666Y-122154761D01*
X85190476Y-122154761D01*
X87190476Y-122154761D02*
X87190476Y-120154761D01*
X87190476Y-121107142D02*
X88333333Y-121107142D01*
X88333333Y-122154761D02*
X88333333Y-120154761D01*
X89666666Y-120154761D02*
X89857142Y-120154761D01*
X90047619Y-120250000D01*
X90142857Y-120345238D01*
X90238095Y-120535714D01*
X90333333Y-120916666D01*
X90333333Y-121392857D01*
X90238095Y-121773809D01*
X90142857Y-121964285D01*
X90047619Y-122059523D01*
X89857142Y-122154761D01*
X89666666Y-122154761D01*
X89476190Y-122059523D01*
X89380952Y-121964285D01*
X89285714Y-121773809D01*
X89190476Y-121392857D01*
X89190476Y-120916666D01*
X89285714Y-120535714D01*
X89380952Y-120345238D01*
X89476190Y-120250000D01*
X89666666Y-120154761D01*
X92238095Y-122154761D02*
X91095238Y-122154761D01*
X91666666Y-122154761D02*
X91666666Y-120154761D01*
X91476190Y-120440476D01*
X91285714Y-120630952D01*
X91095238Y-120726190D01*
X161309523Y-97654761D02*
X161452380Y-97702380D01*
X161690476Y-97702380D01*
X161785714Y-97654761D01*
X161833333Y-97607142D01*
X161880952Y-97511904D01*
X161880952Y-97416666D01*
X161833333Y-97321428D01*
X161785714Y-97273809D01*
X161690476Y-97226190D01*
X161500000Y-97178571D01*
X161404761Y-97130952D01*
X161357142Y-97083333D01*
X161309523Y-96988095D01*
X161309523Y-96892857D01*
X161357142Y-96797619D01*
X161404761Y-96750000D01*
X161500000Y-96702380D01*
X161738095Y-96702380D01*
X161880952Y-96750000D01*
X162880952Y-97607142D02*
X162833333Y-97654761D01*
X162690476Y-97702380D01*
X162595238Y-97702380D01*
X162452380Y-97654761D01*
X162357142Y-97559523D01*
X162309523Y-97464285D01*
X162261904Y-97273809D01*
X162261904Y-97130952D01*
X162309523Y-96940476D01*
X162357142Y-96845238D01*
X162452380Y-96750000D01*
X162595238Y-96702380D01*
X162690476Y-96702380D01*
X162833333Y-96750000D01*
X162880952Y-96797619D01*
X163785714Y-97702380D02*
X163309523Y-97702380D01*
X163309523Y-96702380D01*
X164119047Y-97702380D02*
X164119047Y-96702380D01*
X164690476Y-97702380D02*
X164261904Y-97130952D01*
X164690476Y-96702380D02*
X164119047Y-97273809D01*
X161476190Y-100154761D02*
X161619047Y-100202380D01*
X161857142Y-100202380D01*
X161952380Y-100154761D01*
X162000000Y-100107142D01*
X162047619Y-100011904D01*
X162047619Y-99916666D01*
X162000000Y-99821428D01*
X161952380Y-99773809D01*
X161857142Y-99726190D01*
X161666666Y-99678571D01*
X161571428Y-99630952D01*
X161523809Y-99583333D01*
X161476190Y-99488095D01*
X161476190Y-99392857D01*
X161523809Y-99297619D01*
X161571428Y-99250000D01*
X161666666Y-99202380D01*
X161904761Y-99202380D01*
X162047619Y-99250000D01*
X162476190Y-100202380D02*
X162476190Y-99202380D01*
X161488095Y-102654761D02*
X161630952Y-102702380D01*
X161869047Y-102702380D01*
X161964285Y-102654761D01*
X162011904Y-102607142D01*
X162059523Y-102511904D01*
X162059523Y-102416666D01*
X162011904Y-102321428D01*
X161964285Y-102273809D01*
X161869047Y-102226190D01*
X161678571Y-102178571D01*
X161583333Y-102130952D01*
X161535714Y-102083333D01*
X161488095Y-101988095D01*
X161488095Y-101892857D01*
X161535714Y-101797619D01*
X161583333Y-101750000D01*
X161678571Y-101702380D01*
X161916666Y-101702380D01*
X162059523Y-101750000D01*
X163059523Y-102607142D02*
X163011904Y-102654761D01*
X162869047Y-102702380D01*
X162773809Y-102702380D01*
X162630952Y-102654761D01*
X162535714Y-102559523D01*
X162488095Y-102464285D01*
X162440476Y-102273809D01*
X162440476Y-102130952D01*
X162488095Y-101940476D01*
X162535714Y-101845238D01*
X162630952Y-101750000D01*
X162773809Y-101702380D01*
X162869047Y-101702380D01*
X163011904Y-101750000D01*
X163059523Y-101797619D01*
X163440476Y-102654761D02*
X163583333Y-102702380D01*
X163821428Y-102702380D01*
X163916666Y-102654761D01*
X163964285Y-102607142D01*
X164011904Y-102511904D01*
X164011904Y-102416666D01*
X163964285Y-102321428D01*
X163916666Y-102273809D01*
X163821428Y-102226190D01*
X163630952Y-102178571D01*
X163535714Y-102130952D01*
X163488095Y-102083333D01*
X163440476Y-101988095D01*
X163440476Y-101892857D01*
X163488095Y-101797619D01*
X163535714Y-101750000D01*
X163630952Y-101702380D01*
X163869047Y-101702380D01*
X164011904Y-101750000D01*
X162083333Y-105107142D02*
X162035714Y-105154761D01*
X161892857Y-105202380D01*
X161797619Y-105202380D01*
X161654761Y-105154761D01*
X161559523Y-105059523D01*
X161511904Y-104964285D01*
X161464285Y-104773809D01*
X161464285Y-104630952D01*
X161511904Y-104440476D01*
X161559523Y-104345238D01*
X161654761Y-104250000D01*
X161797619Y-104202380D01*
X161892857Y-104202380D01*
X162035714Y-104250000D01*
X162083333Y-104297619D01*
X162654761Y-105202380D02*
X162559523Y-105154761D01*
X162511904Y-105107142D01*
X162464285Y-105011904D01*
X162464285Y-104726190D01*
X162511904Y-104630952D01*
X162559523Y-104583333D01*
X162654761Y-104535714D01*
X162797619Y-104535714D01*
X162892857Y-104583333D01*
X162940476Y-104630952D01*
X162988095Y-104726190D01*
X162988095Y-105011904D01*
X162940476Y-105107142D01*
X162892857Y-105154761D01*
X162797619Y-105202380D01*
X162654761Y-105202380D01*
X163416666Y-105202380D02*
X163416666Y-104535714D01*
X163416666Y-104630952D02*
X163464285Y-104583333D01*
X163559523Y-104535714D01*
X163702380Y-104535714D01*
X163797619Y-104583333D01*
X163845238Y-104678571D01*
X163845238Y-105202380D01*
X163845238Y-104678571D02*
X163892857Y-104583333D01*
X163988095Y-104535714D01*
X164130952Y-104535714D01*
X164226190Y-104583333D01*
X164273809Y-104678571D01*
X164273809Y-105202380D01*
X164750000Y-105202380D02*
X164750000Y-104535714D01*
X164750000Y-104630952D02*
X164797619Y-104583333D01*
X164892857Y-104535714D01*
X165035714Y-104535714D01*
X165130952Y-104583333D01*
X165178571Y-104678571D01*
X165178571Y-105202380D01*
X165178571Y-104678571D02*
X165226190Y-104583333D01*
X165321428Y-104535714D01*
X165464285Y-104535714D01*
X165559523Y-104583333D01*
X165607142Y-104678571D01*
X165607142Y-105202380D01*
X166083333Y-105202380D02*
X166083333Y-104202380D01*
X166559523Y-104535714D02*
X166559523Y-105202380D01*
X166559523Y-104630952D02*
X166607142Y-104583333D01*
X166702380Y-104535714D01*
X166845238Y-104535714D01*
X166940476Y-104583333D01*
X166988095Y-104678571D01*
X166988095Y-105202380D01*
X161642857Y-107702380D02*
X161642857Y-106702380D01*
X161880952Y-106702380D01*
X162023809Y-106750000D01*
X162119047Y-106845238D01*
X162166666Y-106940476D01*
X162214285Y-107130952D01*
X162214285Y-107273809D01*
X162166666Y-107464285D01*
X162119047Y-107559523D01*
X162023809Y-107654761D01*
X161880952Y-107702380D01*
X161642857Y-107702380D01*
X162642857Y-107702380D02*
X162642857Y-107035714D01*
X162642857Y-106702380D02*
X162595238Y-106750000D01*
X162642857Y-106797619D01*
X162690476Y-106750000D01*
X162642857Y-106702380D01*
X162642857Y-106797619D01*
X163071428Y-107654761D02*
X163166666Y-107702380D01*
X163357142Y-107702380D01*
X163452380Y-107654761D01*
X163500000Y-107559523D01*
X163500000Y-107511904D01*
X163452380Y-107416666D01*
X163357142Y-107369047D01*
X163214285Y-107369047D01*
X163119047Y-107321428D01*
X163071428Y-107226190D01*
X163071428Y-107178571D01*
X163119047Y-107083333D01*
X163214285Y-107035714D01*
X163357142Y-107035714D01*
X163452380Y-107083333D01*
X163928571Y-107035714D02*
X163928571Y-108035714D01*
X163928571Y-107083333D02*
X164023809Y-107035714D01*
X164214285Y-107035714D01*
X164309523Y-107083333D01*
X164357142Y-107130952D01*
X164404761Y-107226190D01*
X164404761Y-107511904D01*
X164357142Y-107607142D01*
X164309523Y-107654761D01*
X164214285Y-107702380D01*
X164023809Y-107702380D01*
X163928571Y-107654761D01*
X161464285Y-109821428D02*
X162226190Y-109821428D01*
X161845238Y-110202380D02*
X161845238Y-109440476D01*
X163178571Y-109202380D02*
X162702380Y-109202380D01*
X162654761Y-109678571D01*
X162702380Y-109630952D01*
X162797619Y-109583333D01*
X163035714Y-109583333D01*
X163130952Y-109630952D01*
X163178571Y-109678571D01*
X163226190Y-109773809D01*
X163226190Y-110011904D01*
X163178571Y-110107142D01*
X163130952Y-110154761D01*
X163035714Y-110202380D01*
X162797619Y-110202380D01*
X162702380Y-110154761D01*
X162654761Y-110107142D01*
X163511904Y-109202380D02*
X163845238Y-110202380D01*
X164178571Y-109202380D01*
X162359404Y-112000000D02*
X162264166Y-111952380D01*
X162121309Y-111952380D01*
X161978452Y-112000000D01*
X161883214Y-112095238D01*
X161835595Y-112190476D01*
X161787976Y-112380952D01*
X161787976Y-112523809D01*
X161835595Y-112714285D01*
X161883214Y-112809523D01*
X161978452Y-112904761D01*
X162121309Y-112952380D01*
X162216547Y-112952380D01*
X162359404Y-112904761D01*
X162407023Y-112857142D01*
X162407023Y-112523809D01*
X162216547Y-112523809D01*
X162835595Y-112952380D02*
X162835595Y-111952380D01*
X163407023Y-112952380D01*
X163407023Y-111952380D01*
X163883214Y-112952380D02*
X163883214Y-111952380D01*
X164121309Y-111952380D01*
X164264166Y-112000000D01*
X164359404Y-112095238D01*
X164407023Y-112190476D01*
X164454642Y-112380952D01*
X164454642Y-112523809D01*
X164407023Y-112714285D01*
X164359404Y-112809523D01*
X164264166Y-112904761D01*
X164121309Y-112952380D01*
X163883214Y-112952380D01*
%TO.C,JP1*%
X122416666Y-113952380D02*
X122416666Y-114666666D01*
X122369047Y-114809523D01*
X122273809Y-114904761D01*
X122130952Y-114952380D01*
X122035714Y-114952380D01*
X122892857Y-114952380D02*
X122892857Y-113952380D01*
X123273809Y-113952380D01*
X123369047Y-114000000D01*
X123416666Y-114047619D01*
X123464285Y-114142857D01*
X123464285Y-114285714D01*
X123416666Y-114380952D01*
X123369047Y-114428571D01*
X123273809Y-114476190D01*
X122892857Y-114476190D01*
X124416666Y-114952380D02*
X123845238Y-114952380D01*
X124130952Y-114952380D02*
X124130952Y-113952380D01*
X124035714Y-114095238D01*
X123940476Y-114190476D01*
X123845238Y-114238095D01*
%TO.C,C1*%
X109333333Y-112357142D02*
X109285714Y-112404761D01*
X109142857Y-112452380D01*
X109047619Y-112452380D01*
X108904761Y-112404761D01*
X108809523Y-112309523D01*
X108761904Y-112214285D01*
X108714285Y-112023809D01*
X108714285Y-111880952D01*
X108761904Y-111690476D01*
X108809523Y-111595238D01*
X108904761Y-111500000D01*
X109047619Y-111452380D01*
X109142857Y-111452380D01*
X109285714Y-111500000D01*
X109333333Y-111547619D01*
X110285714Y-112452380D02*
X109714285Y-112452380D01*
X110000000Y-112452380D02*
X110000000Y-111452380D01*
X109904761Y-111595238D01*
X109809523Y-111690476D01*
X109714285Y-111738095D01*
D11*
%TO.C,J10*%
X98971904Y-118554523D02*
X98971904Y-119461666D01*
X98911428Y-119643095D01*
X98790476Y-119764047D01*
X98609047Y-119824523D01*
X98488095Y-119824523D01*
X100241904Y-119824523D02*
X99516190Y-119824523D01*
X99879047Y-119824523D02*
X99879047Y-118554523D01*
X99758095Y-118735952D01*
X99637142Y-118856904D01*
X99516190Y-118917380D01*
X101028095Y-118554523D02*
X101149047Y-118554523D01*
X101270000Y-118615000D01*
X101330476Y-118675476D01*
X101390952Y-118796428D01*
X101451428Y-119038333D01*
X101451428Y-119340714D01*
X101390952Y-119582619D01*
X101330476Y-119703571D01*
X101270000Y-119764047D01*
X101149047Y-119824523D01*
X101028095Y-119824523D01*
X100907142Y-119764047D01*
X100846666Y-119703571D01*
X100786190Y-119582619D01*
X100725714Y-119340714D01*
X100725714Y-119038333D01*
X100786190Y-118796428D01*
X100846666Y-118675476D01*
X100907142Y-118615000D01*
X101028095Y-118554523D01*
D10*
%TO.C,J1*%
X158666666Y-114157380D02*
X158666666Y-114871666D01*
X158619047Y-115014523D01*
X158523809Y-115109761D01*
X158380952Y-115157380D01*
X158285714Y-115157380D01*
X159666666Y-115157380D02*
X159095238Y-115157380D01*
X159380952Y-115157380D02*
X159380952Y-114157380D01*
X159285714Y-114300238D01*
X159190476Y-114395476D01*
X159095238Y-114443095D01*
%TO.C,C2*%
X115333333Y-114607142D02*
X115285714Y-114654761D01*
X115142857Y-114702380D01*
X115047619Y-114702380D01*
X114904761Y-114654761D01*
X114809523Y-114559523D01*
X114761904Y-114464285D01*
X114714285Y-114273809D01*
X114714285Y-114130952D01*
X114761904Y-113940476D01*
X114809523Y-113845238D01*
X114904761Y-113750000D01*
X115047619Y-113702380D01*
X115142857Y-113702380D01*
X115285714Y-113750000D01*
X115333333Y-113797619D01*
X115714285Y-113797619D02*
X115761904Y-113750000D01*
X115857142Y-113702380D01*
X116095238Y-113702380D01*
X116190476Y-113750000D01*
X116238095Y-113797619D01*
X116285714Y-113892857D01*
X116285714Y-113988095D01*
X116238095Y-114130952D01*
X115666666Y-114702380D01*
X116285714Y-114702380D01*
D12*
%TO.C,JP1*%
X122250000Y-112400000D02*
X122250000Y-109600000D01*
X123550000Y-113050000D02*
X122950000Y-113050000D01*
X124250000Y-109600000D02*
X124250000Y-112400000D01*
X122050000Y-109800000D02*
X121750000Y-110100000D01*
X122950000Y-108950000D02*
X123550000Y-108950000D01*
X122050000Y-109800000D02*
X121750000Y-109500000D01*
X121750000Y-109500000D02*
X121750000Y-110100000D01*
X123550000Y-113050000D02*
G75*
G03*
X124250000Y-112350000I0J700000D01*
G01*
X124250000Y-109650000D02*
G75*
G03*
X123550000Y-108950000I-699999J1D01*
G01*
X122950000Y-108950000D02*
G75*
G03*
X122250000Y-109650000I-1J-699999D01*
G01*
X122250000Y-112350000D02*
G75*
G03*
X122950000Y-113050000I700000J0D01*
G01*
%TO.C,C1*%
X109359420Y-109740000D02*
X109640580Y-109740000D01*
X109359420Y-110760000D02*
X109640580Y-110760000D01*
D13*
%TO.C,J10*%
X113850000Y-122650000D02*
X104150000Y-122650000D01*
D12*
%TO.C,J1*%
X157670000Y-111105000D02*
X157670000Y-95805000D01*
X160330000Y-112375000D02*
X160330000Y-113705000D01*
X160330000Y-95805000D02*
X157670000Y-95805000D01*
X160330000Y-113705000D02*
X159000000Y-113705000D01*
X160330000Y-111105000D02*
X160330000Y-95805000D01*
X160330000Y-111105000D02*
X157670000Y-111105000D01*
%TO.C,C2*%
X115359420Y-111990000D02*
X115640580Y-111990000D01*
X115359420Y-113010000D02*
X115640580Y-113010000D01*
%TD*%
M02*
