%TF.GenerationSoftware,KiCad,Pcbnew,(6.0.11)*%
%TF.CreationDate,2023-05-11T22:28:13+02:00*%
%TF.ProjectId,Sharp_display,53686172-705f-4646-9973-706c61792e6b,rev?*%
%TF.SameCoordinates,Original*%
%TF.FileFunction,Drillmap*%
%TF.FilePolarity,Positive*%
%FSLAX45Y45*%
G04 Gerber Fmt 4.5, Leading zero omitted, Abs format (unit mm)*
G04 Created by KiCad (PCBNEW (6.0.11)) date 2023-05-11 22:28:13*
%MOMM*%
%LPD*%
G01*
G04 APERTURE LIST*
%ADD10C,0.100000*%
%ADD11C,0.200000*%
%ADD12C,0.040000*%
G04 APERTURE END LIST*
D10*
X5000000Y-4300000D02*
X16800000Y-4300000D01*
X16800000Y-4300000D02*
X16800000Y-12500000D01*
X16800000Y-12500000D02*
X5000000Y-12500000D01*
X5000000Y-12500000D02*
X5000000Y-4300000D01*
X5625000Y-12100000D02*
G75*
G03*
X5625000Y-12100000I-225000J0D01*
G01*
X16625000Y-4700000D02*
G75*
G03*
X16625000Y-4700000I-225000J0D01*
G01*
X5625000Y-4700000D02*
G75*
G03*
X5625000Y-4700000I-225000J0D01*
G01*
X16625000Y-12100000D02*
G75*
G03*
X16625000Y-12100000I-225000J0D01*
G01*
D11*
D12*
X11180000Y-11005000D02*
X11220000Y-11045000D01*
X11220000Y-11005000D02*
X11180000Y-11045000D01*
X11180000Y-11355000D02*
X11220000Y-11395000D01*
X11220000Y-11355000D02*
X11180000Y-11395000D01*
X11817500Y-11217500D02*
X11857500Y-11257500D01*
X11857500Y-11217500D02*
X11817500Y-11257500D01*
X12055000Y-11080000D02*
X12095000Y-11120000D01*
X12095000Y-11080000D02*
X12055000Y-11120000D01*
D10*
X15950000Y-9713500D02*
G75*
G03*
X15950000Y-9713500I-50000J0D01*
G01*
X15950000Y-9967500D02*
G75*
G03*
X15950000Y-9967500I-50000J0D01*
G01*
X15950000Y-10221500D02*
G75*
G03*
X15950000Y-10221500I-50000J0D01*
G01*
X15950000Y-10475500D02*
G75*
G03*
X15950000Y-10475500I-50000J0D01*
G01*
X15950000Y-10729500D02*
G75*
G03*
X15950000Y-10729500I-50000J0D01*
G01*
X15950000Y-10983500D02*
G75*
G03*
X15950000Y-10983500I-50000J0D01*
G01*
X15950000Y-11237500D02*
G75*
G03*
X15950000Y-11237500I-50000J0D01*
G01*
D11*
X5252619Y-12815476D02*
X5252619Y-12615476D01*
X5300238Y-12615476D01*
X5328810Y-12625000D01*
X5347857Y-12644048D01*
X5357381Y-12663095D01*
X5366905Y-12701190D01*
X5366905Y-12729762D01*
X5357381Y-12767857D01*
X5347857Y-12786905D01*
X5328810Y-12805952D01*
X5300238Y-12815476D01*
X5252619Y-12815476D01*
X5452619Y-12815476D02*
X5452619Y-12682143D01*
X5452619Y-12720238D02*
X5462143Y-12701190D01*
X5471667Y-12691667D01*
X5490714Y-12682143D01*
X5509762Y-12682143D01*
X5576429Y-12815476D02*
X5576429Y-12682143D01*
X5576429Y-12615476D02*
X5566905Y-12625000D01*
X5576429Y-12634524D01*
X5585952Y-12625000D01*
X5576429Y-12615476D01*
X5576429Y-12634524D01*
X5700238Y-12815476D02*
X5681190Y-12805952D01*
X5671667Y-12786905D01*
X5671667Y-12615476D01*
X5805000Y-12815476D02*
X5785952Y-12805952D01*
X5776428Y-12786905D01*
X5776428Y-12615476D01*
X6033571Y-12815476D02*
X6033571Y-12615476D01*
X6100238Y-12758333D01*
X6166905Y-12615476D01*
X6166905Y-12815476D01*
X6347857Y-12815476D02*
X6347857Y-12710714D01*
X6338333Y-12691667D01*
X6319286Y-12682143D01*
X6281190Y-12682143D01*
X6262143Y-12691667D01*
X6347857Y-12805952D02*
X6328809Y-12815476D01*
X6281190Y-12815476D01*
X6262143Y-12805952D01*
X6252619Y-12786905D01*
X6252619Y-12767857D01*
X6262143Y-12748809D01*
X6281190Y-12739286D01*
X6328809Y-12739286D01*
X6347857Y-12729762D01*
X6443095Y-12682143D02*
X6443095Y-12882143D01*
X6443095Y-12691667D02*
X6462143Y-12682143D01*
X6500238Y-12682143D01*
X6519286Y-12691667D01*
X6528809Y-12701190D01*
X6538333Y-12720238D01*
X6538333Y-12777381D01*
X6528809Y-12796428D01*
X6519286Y-12805952D01*
X6500238Y-12815476D01*
X6462143Y-12815476D01*
X6443095Y-12805952D01*
X6624048Y-12796428D02*
X6633571Y-12805952D01*
X6624048Y-12815476D01*
X6614524Y-12805952D01*
X6624048Y-12796428D01*
X6624048Y-12815476D01*
X6624048Y-12691667D02*
X6633571Y-12701190D01*
X6624048Y-12710714D01*
X6614524Y-12701190D01*
X6624048Y-12691667D01*
X6624048Y-12710714D01*
D12*
X4955000Y-13125000D02*
X4995000Y-13165000D01*
X4995000Y-13125000D02*
X4955000Y-13165000D01*
D11*
X5290714Y-13035476D02*
X5309762Y-13035476D01*
X5328810Y-13045000D01*
X5338333Y-13054524D01*
X5347857Y-13073571D01*
X5357381Y-13111667D01*
X5357381Y-13159286D01*
X5347857Y-13197381D01*
X5338333Y-13216428D01*
X5328810Y-13225952D01*
X5309762Y-13235476D01*
X5290714Y-13235476D01*
X5271667Y-13225952D01*
X5262143Y-13216428D01*
X5252619Y-13197381D01*
X5243095Y-13159286D01*
X5243095Y-13111667D01*
X5252619Y-13073571D01*
X5262143Y-13054524D01*
X5271667Y-13045000D01*
X5290714Y-13035476D01*
X5443095Y-13216428D02*
X5452619Y-13225952D01*
X5443095Y-13235476D01*
X5433571Y-13225952D01*
X5443095Y-13216428D01*
X5443095Y-13235476D01*
X5624048Y-13102143D02*
X5624048Y-13235476D01*
X5576429Y-13025952D02*
X5528810Y-13168809D01*
X5652619Y-13168809D01*
X5766905Y-13035476D02*
X5785952Y-13035476D01*
X5805000Y-13045000D01*
X5814524Y-13054524D01*
X5824048Y-13073571D01*
X5833571Y-13111667D01*
X5833571Y-13159286D01*
X5824048Y-13197381D01*
X5814524Y-13216428D01*
X5805000Y-13225952D01*
X5785952Y-13235476D01*
X5766905Y-13235476D01*
X5747857Y-13225952D01*
X5738333Y-13216428D01*
X5728809Y-13197381D01*
X5719286Y-13159286D01*
X5719286Y-13111667D01*
X5728809Y-13073571D01*
X5738333Y-13054524D01*
X5747857Y-13045000D01*
X5766905Y-13035476D01*
X5957381Y-13035476D02*
X5976428Y-13035476D01*
X5995476Y-13045000D01*
X6005000Y-13054524D01*
X6014524Y-13073571D01*
X6024048Y-13111667D01*
X6024048Y-13159286D01*
X6014524Y-13197381D01*
X6005000Y-13216428D01*
X5995476Y-13225952D01*
X5976428Y-13235476D01*
X5957381Y-13235476D01*
X5938333Y-13225952D01*
X5928809Y-13216428D01*
X5919286Y-13197381D01*
X5909762Y-13159286D01*
X5909762Y-13111667D01*
X5919286Y-13073571D01*
X5928809Y-13054524D01*
X5938333Y-13045000D01*
X5957381Y-13035476D01*
X6109762Y-13235476D02*
X6109762Y-13102143D01*
X6109762Y-13121190D02*
X6119286Y-13111667D01*
X6138333Y-13102143D01*
X6166905Y-13102143D01*
X6185952Y-13111667D01*
X6195476Y-13130714D01*
X6195476Y-13235476D01*
X6195476Y-13130714D02*
X6205000Y-13111667D01*
X6224048Y-13102143D01*
X6252619Y-13102143D01*
X6271667Y-13111667D01*
X6281190Y-13130714D01*
X6281190Y-13235476D01*
X6376428Y-13235476D02*
X6376428Y-13102143D01*
X6376428Y-13121190D02*
X6385952Y-13111667D01*
X6405000Y-13102143D01*
X6433571Y-13102143D01*
X6452619Y-13111667D01*
X6462143Y-13130714D01*
X6462143Y-13235476D01*
X6462143Y-13130714D02*
X6471667Y-13111667D01*
X6490714Y-13102143D01*
X6519286Y-13102143D01*
X6538333Y-13111667D01*
X6547857Y-13130714D01*
X6547857Y-13235476D01*
X6938333Y-13025952D02*
X6766905Y-13283095D01*
X7195476Y-13035476D02*
X7214524Y-13035476D01*
X7233571Y-13045000D01*
X7243095Y-13054524D01*
X7252619Y-13073571D01*
X7262143Y-13111667D01*
X7262143Y-13159286D01*
X7252619Y-13197381D01*
X7243095Y-13216428D01*
X7233571Y-13225952D01*
X7214524Y-13235476D01*
X7195476Y-13235476D01*
X7176428Y-13225952D01*
X7166905Y-13216428D01*
X7157381Y-13197381D01*
X7147857Y-13159286D01*
X7147857Y-13111667D01*
X7157381Y-13073571D01*
X7166905Y-13054524D01*
X7176428Y-13045000D01*
X7195476Y-13035476D01*
X7347857Y-13216428D02*
X7357381Y-13225952D01*
X7347857Y-13235476D01*
X7338333Y-13225952D01*
X7347857Y-13216428D01*
X7347857Y-13235476D01*
X7481190Y-13035476D02*
X7500238Y-13035476D01*
X7519286Y-13045000D01*
X7528809Y-13054524D01*
X7538333Y-13073571D01*
X7547857Y-13111667D01*
X7547857Y-13159286D01*
X7538333Y-13197381D01*
X7528809Y-13216428D01*
X7519286Y-13225952D01*
X7500238Y-13235476D01*
X7481190Y-13235476D01*
X7462143Y-13225952D01*
X7452619Y-13216428D01*
X7443095Y-13197381D01*
X7433571Y-13159286D01*
X7433571Y-13111667D01*
X7443095Y-13073571D01*
X7452619Y-13054524D01*
X7462143Y-13045000D01*
X7481190Y-13035476D01*
X7738333Y-13235476D02*
X7624048Y-13235476D01*
X7681190Y-13235476D02*
X7681190Y-13035476D01*
X7662143Y-13064048D01*
X7643095Y-13083095D01*
X7624048Y-13092619D01*
X7919286Y-13035476D02*
X7824048Y-13035476D01*
X7814524Y-13130714D01*
X7824048Y-13121190D01*
X7843095Y-13111667D01*
X7890714Y-13111667D01*
X7909762Y-13121190D01*
X7919286Y-13130714D01*
X7928809Y-13149762D01*
X7928809Y-13197381D01*
X7919286Y-13216428D01*
X7909762Y-13225952D01*
X7890714Y-13235476D01*
X7843095Y-13235476D01*
X7824048Y-13225952D01*
X7814524Y-13216428D01*
X7995476Y-13035476D02*
X8128809Y-13035476D01*
X8043095Y-13235476D01*
X8195476Y-13035476D02*
X8195476Y-13073571D01*
X8271667Y-13035476D02*
X8271667Y-13073571D01*
X8566905Y-13311667D02*
X8557381Y-13302143D01*
X8538333Y-13273571D01*
X8528810Y-13254524D01*
X8519286Y-13225952D01*
X8509762Y-13178333D01*
X8509762Y-13140238D01*
X8519286Y-13092619D01*
X8528810Y-13064048D01*
X8538333Y-13045000D01*
X8557381Y-13016428D01*
X8566905Y-13006905D01*
X8728810Y-13102143D02*
X8728810Y-13235476D01*
X8681190Y-13025952D02*
X8633571Y-13168809D01*
X8757381Y-13168809D01*
X8985952Y-13235476D02*
X8985952Y-13035476D01*
X9071667Y-13235476D02*
X9071667Y-13130714D01*
X9062143Y-13111667D01*
X9043095Y-13102143D01*
X9014524Y-13102143D01*
X8995476Y-13111667D01*
X8985952Y-13121190D01*
X9195476Y-13235476D02*
X9176429Y-13225952D01*
X9166905Y-13216428D01*
X9157381Y-13197381D01*
X9157381Y-13140238D01*
X9166905Y-13121190D01*
X9176429Y-13111667D01*
X9195476Y-13102143D01*
X9224048Y-13102143D01*
X9243095Y-13111667D01*
X9252619Y-13121190D01*
X9262143Y-13140238D01*
X9262143Y-13197381D01*
X9252619Y-13216428D01*
X9243095Y-13225952D01*
X9224048Y-13235476D01*
X9195476Y-13235476D01*
X9376429Y-13235476D02*
X9357381Y-13225952D01*
X9347857Y-13206905D01*
X9347857Y-13035476D01*
X9528810Y-13225952D02*
X9509762Y-13235476D01*
X9471667Y-13235476D01*
X9452619Y-13225952D01*
X9443095Y-13206905D01*
X9443095Y-13130714D01*
X9452619Y-13111667D01*
X9471667Y-13102143D01*
X9509762Y-13102143D01*
X9528810Y-13111667D01*
X9538333Y-13130714D01*
X9538333Y-13149762D01*
X9443095Y-13168809D01*
X9614524Y-13225952D02*
X9633571Y-13235476D01*
X9671667Y-13235476D01*
X9690714Y-13225952D01*
X9700238Y-13206905D01*
X9700238Y-13197381D01*
X9690714Y-13178333D01*
X9671667Y-13168809D01*
X9643095Y-13168809D01*
X9624048Y-13159286D01*
X9614524Y-13140238D01*
X9614524Y-13130714D01*
X9624048Y-13111667D01*
X9643095Y-13102143D01*
X9671667Y-13102143D01*
X9690714Y-13111667D01*
X9766905Y-13311667D02*
X9776429Y-13302143D01*
X9795476Y-13273571D01*
X9805000Y-13254524D01*
X9814524Y-13225952D01*
X9824048Y-13178333D01*
X9824048Y-13140238D01*
X9814524Y-13092619D01*
X9805000Y-13064048D01*
X9795476Y-13045000D01*
X9776429Y-13016428D01*
X9766905Y-13006905D01*
D10*
X4995000Y-13409000D02*
G75*
G03*
X4995000Y-13409000I-50000J0D01*
G01*
D11*
X5357381Y-13499476D02*
X5243095Y-13499476D01*
X5300238Y-13499476D02*
X5300238Y-13299476D01*
X5281190Y-13328048D01*
X5262143Y-13347095D01*
X5243095Y-13356619D01*
X5443095Y-13480428D02*
X5452619Y-13489952D01*
X5443095Y-13499476D01*
X5433571Y-13489952D01*
X5443095Y-13480428D01*
X5443095Y-13499476D01*
X5576429Y-13299476D02*
X5595476Y-13299476D01*
X5614524Y-13309000D01*
X5624048Y-13318524D01*
X5633571Y-13337571D01*
X5643095Y-13375667D01*
X5643095Y-13423286D01*
X5633571Y-13461381D01*
X5624048Y-13480428D01*
X5614524Y-13489952D01*
X5595476Y-13499476D01*
X5576429Y-13499476D01*
X5557381Y-13489952D01*
X5547857Y-13480428D01*
X5538333Y-13461381D01*
X5528810Y-13423286D01*
X5528810Y-13375667D01*
X5538333Y-13337571D01*
X5547857Y-13318524D01*
X5557381Y-13309000D01*
X5576429Y-13299476D01*
X5766905Y-13299476D02*
X5785952Y-13299476D01*
X5805000Y-13309000D01*
X5814524Y-13318524D01*
X5824048Y-13337571D01*
X5833571Y-13375667D01*
X5833571Y-13423286D01*
X5824048Y-13461381D01*
X5814524Y-13480428D01*
X5805000Y-13489952D01*
X5785952Y-13499476D01*
X5766905Y-13499476D01*
X5747857Y-13489952D01*
X5738333Y-13480428D01*
X5728809Y-13461381D01*
X5719286Y-13423286D01*
X5719286Y-13375667D01*
X5728809Y-13337571D01*
X5738333Y-13318524D01*
X5747857Y-13309000D01*
X5766905Y-13299476D01*
X5957381Y-13299476D02*
X5976428Y-13299476D01*
X5995476Y-13309000D01*
X6005000Y-13318524D01*
X6014524Y-13337571D01*
X6024048Y-13375667D01*
X6024048Y-13423286D01*
X6014524Y-13461381D01*
X6005000Y-13480428D01*
X5995476Y-13489952D01*
X5976428Y-13499476D01*
X5957381Y-13499476D01*
X5938333Y-13489952D01*
X5928809Y-13480428D01*
X5919286Y-13461381D01*
X5909762Y-13423286D01*
X5909762Y-13375667D01*
X5919286Y-13337571D01*
X5928809Y-13318524D01*
X5938333Y-13309000D01*
X5957381Y-13299476D01*
X6109762Y-13499476D02*
X6109762Y-13366143D01*
X6109762Y-13385190D02*
X6119286Y-13375667D01*
X6138333Y-13366143D01*
X6166905Y-13366143D01*
X6185952Y-13375667D01*
X6195476Y-13394714D01*
X6195476Y-13499476D01*
X6195476Y-13394714D02*
X6205000Y-13375667D01*
X6224048Y-13366143D01*
X6252619Y-13366143D01*
X6271667Y-13375667D01*
X6281190Y-13394714D01*
X6281190Y-13499476D01*
X6376428Y-13499476D02*
X6376428Y-13366143D01*
X6376428Y-13385190D02*
X6385952Y-13375667D01*
X6405000Y-13366143D01*
X6433571Y-13366143D01*
X6452619Y-13375667D01*
X6462143Y-13394714D01*
X6462143Y-13499476D01*
X6462143Y-13394714D02*
X6471667Y-13375667D01*
X6490714Y-13366143D01*
X6519286Y-13366143D01*
X6538333Y-13375667D01*
X6547857Y-13394714D01*
X6547857Y-13499476D01*
X6938333Y-13289952D02*
X6766905Y-13547095D01*
X7195476Y-13299476D02*
X7214524Y-13299476D01*
X7233571Y-13309000D01*
X7243095Y-13318524D01*
X7252619Y-13337571D01*
X7262143Y-13375667D01*
X7262143Y-13423286D01*
X7252619Y-13461381D01*
X7243095Y-13480428D01*
X7233571Y-13489952D01*
X7214524Y-13499476D01*
X7195476Y-13499476D01*
X7176428Y-13489952D01*
X7166905Y-13480428D01*
X7157381Y-13461381D01*
X7147857Y-13423286D01*
X7147857Y-13375667D01*
X7157381Y-13337571D01*
X7166905Y-13318524D01*
X7176428Y-13309000D01*
X7195476Y-13299476D01*
X7347857Y-13480428D02*
X7357381Y-13489952D01*
X7347857Y-13499476D01*
X7338333Y-13489952D01*
X7347857Y-13480428D01*
X7347857Y-13499476D01*
X7481190Y-13299476D02*
X7500238Y-13299476D01*
X7519286Y-13309000D01*
X7528809Y-13318524D01*
X7538333Y-13337571D01*
X7547857Y-13375667D01*
X7547857Y-13423286D01*
X7538333Y-13461381D01*
X7528809Y-13480428D01*
X7519286Y-13489952D01*
X7500238Y-13499476D01*
X7481190Y-13499476D01*
X7462143Y-13489952D01*
X7452619Y-13480428D01*
X7443095Y-13461381D01*
X7433571Y-13423286D01*
X7433571Y-13375667D01*
X7443095Y-13337571D01*
X7452619Y-13318524D01*
X7462143Y-13309000D01*
X7481190Y-13299476D01*
X7614524Y-13299476D02*
X7738333Y-13299476D01*
X7671667Y-13375667D01*
X7700238Y-13375667D01*
X7719286Y-13385190D01*
X7728809Y-13394714D01*
X7738333Y-13413762D01*
X7738333Y-13461381D01*
X7728809Y-13480428D01*
X7719286Y-13489952D01*
X7700238Y-13499476D01*
X7643095Y-13499476D01*
X7624048Y-13489952D01*
X7614524Y-13480428D01*
X7833571Y-13499476D02*
X7871667Y-13499476D01*
X7890714Y-13489952D01*
X7900238Y-13480428D01*
X7919286Y-13451857D01*
X7928809Y-13413762D01*
X7928809Y-13337571D01*
X7919286Y-13318524D01*
X7909762Y-13309000D01*
X7890714Y-13299476D01*
X7852619Y-13299476D01*
X7833571Y-13309000D01*
X7824048Y-13318524D01*
X7814524Y-13337571D01*
X7814524Y-13385190D01*
X7824048Y-13404238D01*
X7833571Y-13413762D01*
X7852619Y-13423286D01*
X7890714Y-13423286D01*
X7909762Y-13413762D01*
X7919286Y-13404238D01*
X7928809Y-13385190D01*
X8100238Y-13366143D02*
X8100238Y-13499476D01*
X8052619Y-13289952D02*
X8005000Y-13432809D01*
X8128809Y-13432809D01*
X8195476Y-13299476D02*
X8195476Y-13337571D01*
X8271667Y-13299476D02*
X8271667Y-13337571D01*
X8566905Y-13575667D02*
X8557381Y-13566143D01*
X8538333Y-13537571D01*
X8528810Y-13518524D01*
X8519286Y-13489952D01*
X8509762Y-13442333D01*
X8509762Y-13404238D01*
X8519286Y-13356619D01*
X8528810Y-13328048D01*
X8538333Y-13309000D01*
X8557381Y-13280428D01*
X8566905Y-13270905D01*
X8624048Y-13299476D02*
X8757381Y-13299476D01*
X8671667Y-13499476D01*
X8985952Y-13499476D02*
X8985952Y-13299476D01*
X9071667Y-13499476D02*
X9071667Y-13394714D01*
X9062143Y-13375667D01*
X9043095Y-13366143D01*
X9014524Y-13366143D01*
X8995476Y-13375667D01*
X8985952Y-13385190D01*
X9195476Y-13499476D02*
X9176429Y-13489952D01*
X9166905Y-13480428D01*
X9157381Y-13461381D01*
X9157381Y-13404238D01*
X9166905Y-13385190D01*
X9176429Y-13375667D01*
X9195476Y-13366143D01*
X9224048Y-13366143D01*
X9243095Y-13375667D01*
X9252619Y-13385190D01*
X9262143Y-13404238D01*
X9262143Y-13461381D01*
X9252619Y-13480428D01*
X9243095Y-13489952D01*
X9224048Y-13499476D01*
X9195476Y-13499476D01*
X9376429Y-13499476D02*
X9357381Y-13489952D01*
X9347857Y-13470905D01*
X9347857Y-13299476D01*
X9528810Y-13489952D02*
X9509762Y-13499476D01*
X9471667Y-13499476D01*
X9452619Y-13489952D01*
X9443095Y-13470905D01*
X9443095Y-13394714D01*
X9452619Y-13375667D01*
X9471667Y-13366143D01*
X9509762Y-13366143D01*
X9528810Y-13375667D01*
X9538333Y-13394714D01*
X9538333Y-13413762D01*
X9443095Y-13432809D01*
X9614524Y-13489952D02*
X9633571Y-13499476D01*
X9671667Y-13499476D01*
X9690714Y-13489952D01*
X9700238Y-13470905D01*
X9700238Y-13461381D01*
X9690714Y-13442333D01*
X9671667Y-13432809D01*
X9643095Y-13432809D01*
X9624048Y-13423286D01*
X9614524Y-13404238D01*
X9614524Y-13394714D01*
X9624048Y-13375667D01*
X9643095Y-13366143D01*
X9671667Y-13366143D01*
X9690714Y-13375667D01*
X9766905Y-13575667D02*
X9776429Y-13566143D01*
X9795476Y-13537571D01*
X9805000Y-13518524D01*
X9814524Y-13489952D01*
X9824048Y-13442333D01*
X9824048Y-13404238D01*
X9814524Y-13356619D01*
X9805000Y-13328048D01*
X9795476Y-13309000D01*
X9776429Y-13280428D01*
X9766905Y-13270905D01*
M02*
