%TF.GenerationSoftware,KiCad,Pcbnew,(6.0.11)*%
%TF.CreationDate,2023-05-08T10:59:36+02:00*%
%TF.ProjectId,Sharp_display,53686172-705f-4646-9973-706c61792e6b,rev?*%
%TF.SameCoordinates,Original*%
%TF.FileFunction,Copper,L1,Top*%
%TF.FilePolarity,Positive*%
%FSLAX46Y46*%
G04 Gerber Fmt 4.6, Leading zero omitted, Abs format (unit mm)*
G04 Created by KiCad (PCBNEW (6.0.11)) date 2023-05-08 10:59:36*
%MOMM*%
%LPD*%
G01*
G04 APERTURE LIST*
G04 Aperture macros list*
%AMRoundRect*
0 Rectangle with rounded corners*
0 $1 Rounding radius*
0 $2 $3 $4 $5 $6 $7 $8 $9 X,Y pos of 4 corners*
0 Add a 4 corners polygon primitive as box body*
4,1,4,$2,$3,$4,$5,$6,$7,$8,$9,$2,$3,0*
0 Add four circle primitives for the rounded corners*
1,1,$1+$1,$2,$3*
1,1,$1+$1,$4,$5*
1,1,$1+$1,$6,$7*
1,1,$1+$1,$8,$9*
0 Add four rect primitives between the rounded corners*
20,1,$1+$1,$2,$3,$4,$5,0*
20,1,$1+$1,$4,$5,$6,$7,0*
20,1,$1+$1,$6,$7,$8,$9,0*
20,1,$1+$1,$8,$9,$2,$3,0*%
%AMFreePoly0*
4,1,20,0.000000,0.744959,0.073905,0.744508,0.209726,0.703889,0.328688,0.626782,0.421226,0.519385,0.479903,0.390333,0.500000,0.250000,0.500000,-0.250000,0.499851,-0.262216,0.476331,-0.402017,0.414519,-0.529596,0.319384,-0.634700,0.198574,-0.708877,0.061801,-0.746166,0.000000,-0.745033,0.000000,-0.750000,-0.550000,-0.750000,-0.550000,0.750000,0.000000,0.750000,0.000000,0.744959,
0.000000,0.744959,$1*%
%AMFreePoly1*
4,1,22,0.550000,-0.750000,0.000000,-0.750000,0.000000,-0.745033,-0.079941,-0.743568,-0.215256,-0.701293,-0.333266,-0.622738,-0.424486,-0.514219,-0.481581,-0.384460,-0.499164,-0.250000,-0.500000,-0.250000,-0.500000,0.250000,-0.499164,0.250000,-0.499963,0.256109,-0.478152,0.396186,-0.417904,0.524511,-0.324060,0.630769,-0.204165,0.706417,-0.067858,0.745374,0.000000,0.744959,0.000000,0.750000,
0.550000,0.750000,0.550000,-0.750000,0.550000,-0.750000,$1*%
G04 Aperture macros list end*
%TA.AperFunction,SMDPad,CuDef*%
%ADD10R,0.300000X1.000000*%
%TD*%
%TA.AperFunction,SMDPad,CuDef*%
%ADD11R,2.000000X1.300000*%
%TD*%
%TA.AperFunction,SMDPad,CuDef*%
%ADD12FreePoly0,180.000000*%
%TD*%
%TA.AperFunction,SMDPad,CuDef*%
%ADD13R,1.000000X1.500000*%
%TD*%
%TA.AperFunction,SMDPad,CuDef*%
%ADD14FreePoly1,180.000000*%
%TD*%
%TA.AperFunction,ComponentPad*%
%ADD15O,1.700000X1.700000*%
%TD*%
%TA.AperFunction,ComponentPad*%
%ADD16R,1.700000X1.700000*%
%TD*%
%TA.AperFunction,SMDPad,CuDef*%
%ADD17RoundRect,0.225000X-0.225000X-0.250000X0.225000X-0.250000X0.225000X0.250000X-0.225000X0.250000X0*%
%TD*%
%TA.AperFunction,ViaPad*%
%ADD18C,0.800000*%
%TD*%
%TA.AperFunction,Conductor*%
%ADD19C,0.250000*%
%TD*%
G04 APERTURE END LIST*
D10*
%TO.P,J10,1,1*%
%TO.N,Net-(J10-Pad1)*%
X106750000Y-117550000D03*
%TO.P,J10,2,2*%
%TO.N,Net-(J10-Pad2)*%
X107250000Y-117550000D03*
%TO.P,J10,3,3*%
%TO.N,Net-(J10-Pad3)*%
X107750000Y-117550000D03*
%TO.P,J10,4,4*%
%TO.N,Net-(J10-Pad4)*%
X108250000Y-117550000D03*
%TO.P,J10,5,5*%
%TO.N,Net-(J10-Pad5)*%
X108750000Y-117550000D03*
%TO.P,J10,6,6*%
%TO.N,Net-(J10-Pad6)*%
X109250000Y-117550000D03*
%TO.P,J10,7,7*%
X109750000Y-117550000D03*
%TO.P,J10,8,8*%
%TO.N,Net-(J10-Pad8)*%
X110250000Y-117550000D03*
%TO.P,J10,9,9*%
%TO.N,Net-(C1-Pad2)*%
X110750000Y-117550000D03*
%TO.P,J10,10,10*%
X111250000Y-117550000D03*
D11*
%TO.P,J10,MP1,MP1*%
%TO.N,unconnected-(J10-PadMP1)*%
X104450000Y-120250000D03*
%TO.P,J10,MP2,MP2*%
%TO.N,Net-(C1-Pad2)*%
X113550000Y-120250000D03*
%TD*%
D12*
%TO.P,JP1,3,B*%
%TO.N,Net-(C1-Pad2)*%
X120450000Y-110500000D03*
D13*
%TO.P,JP1,2,C*%
%TO.N,Net-(J10-Pad8)*%
X121750000Y-110500000D03*
D14*
%TO.P,JP1,1,A*%
%TO.N,Net-(J10-Pad6)*%
X123050000Y-110500000D03*
%TD*%
D15*
%TO.P,J1,7,Pin_7*%
%TO.N,Net-(J10-Pad1)*%
X159000000Y-99635000D03*
%TO.P,J1,6,Pin_6*%
%TO.N,Net-(J10-Pad2)*%
X159000000Y-102175000D03*
%TO.P,J1,5,Pin_5*%
%TO.N,Net-(J10-Pad3)*%
X159000000Y-104715000D03*
%TO.P,J1,4,Pin_4*%
%TO.N,Net-(J10-Pad4)*%
X159000000Y-107255000D03*
%TO.P,J1,3,Pin_3*%
%TO.N,Net-(J10-Pad5)*%
X159000000Y-109795000D03*
%TO.P,J1,2,Pin_2*%
%TO.N,Net-(J10-Pad6)*%
X159000000Y-112335000D03*
D16*
%TO.P,J1,1,Pin_1*%
%TO.N,Net-(C1-Pad2)*%
X159000000Y-114875000D03*
%TD*%
D17*
%TO.P,C2,1*%
%TO.N,Net-(J10-Pad6)*%
X112975000Y-110500000D03*
%TO.P,C2,2*%
%TO.N,Net-(C1-Pad2)*%
X114525000Y-110500000D03*
%TD*%
%TO.P,C1,2*%
%TO.N,Net-(C1-Pad2)*%
X112775000Y-106500000D03*
%TO.P,C1,1*%
%TO.N,Net-(J10-Pad5)*%
X111225000Y-106500000D03*
%TD*%
D18*
%TO.N,Net-(J10-Pad8)*%
X111750000Y-113500000D03*
X121750000Y-113500000D03*
%TO.N,Net-(C1-Pad2)*%
X115500000Y-106500000D03*
X117000000Y-110500000D03*
%TD*%
D19*
%TO.N,Net-(C1-Pad2)*%
X159000000Y-114875000D02*
X116425000Y-114875000D01*
X116425000Y-114875000D02*
X114525000Y-112975000D01*
X111250000Y-117550000D02*
X111250000Y-118500000D01*
X111250000Y-118500000D02*
X111250000Y-119250000D01*
X110750000Y-117550000D02*
X110750000Y-118000000D01*
X110750000Y-118000000D02*
X111250000Y-118500000D01*
%TO.N,Net-(J10-Pad6)*%
X112975000Y-110500000D02*
X113000000Y-110475000D01*
X113000000Y-110475000D02*
X113000000Y-109750000D01*
X113000000Y-109750000D02*
X114250000Y-108500000D01*
X114250000Y-108500000D02*
X122500000Y-108500000D01*
X123050000Y-109050000D02*
X123050000Y-110500000D01*
X122500000Y-108500000D02*
X123050000Y-109050000D01*
X146000000Y-110750000D02*
X147585000Y-112335000D01*
X123050000Y-110500000D02*
X145750000Y-110500000D01*
X145750000Y-110500000D02*
X146000000Y-110750000D01*
%TO.N,Net-(J10-Pad8)*%
X121750000Y-113500000D02*
X121750000Y-110500000D01*
%TO.N,Net-(C1-Pad2)*%
X117000000Y-110500000D02*
X120450000Y-110500000D01*
X114525000Y-110500000D02*
X117000000Y-110500000D01*
X112625000Y-114875000D02*
X114525000Y-112975000D01*
X114525000Y-112975000D02*
X114525000Y-110500000D01*
%TO.N,Net-(J10-Pad8)*%
X110250000Y-117550000D02*
X110250000Y-115000000D01*
X110250000Y-115000000D02*
X111750000Y-113500000D01*
%TO.N,Net-(J10-Pad6)*%
X147585000Y-112335000D02*
X159000000Y-112335000D01*
%TO.N,Net-(J10-Pad5)*%
X111225000Y-106500000D02*
X111225000Y-105775000D01*
X111225000Y-105775000D02*
X113000000Y-104000000D01*
%TO.N,Net-(C1-Pad2)*%
X112775000Y-106500000D02*
X115500000Y-106500000D01*
%TO.N,Net-(J10-Pad5)*%
X108750000Y-117550000D02*
X108750000Y-108975000D01*
X108750000Y-108975000D02*
X111225000Y-106500000D01*
%TO.N,Net-(J10-Pad6)*%
X109750000Y-115750000D02*
X109750000Y-112500000D01*
X109750000Y-112500000D02*
X111750000Y-110500000D01*
X111750000Y-110500000D02*
X112975000Y-110500000D01*
%TO.N,Net-(J10-Pad5)*%
X159000000Y-109795000D02*
X149045000Y-109795000D01*
X143250000Y-104000000D02*
X113000000Y-104000000D01*
X149045000Y-109795000D02*
X143250000Y-104000000D01*
%TO.N,Net-(J10-Pad6)*%
X109750000Y-115750000D02*
X109750000Y-117550000D01*
X109250000Y-117550000D02*
X109250000Y-116250000D01*
X109250000Y-116250000D02*
X109750000Y-115750000D01*
%TO.N,Net-(J10-Pad4)*%
X111000000Y-102750000D02*
X108250000Y-105500000D01*
X144500000Y-102750000D02*
X111000000Y-102750000D01*
X159000000Y-107255000D02*
X149005000Y-107255000D01*
X149005000Y-107255000D02*
X144500000Y-102750000D01*
X108250000Y-105500000D02*
X108250000Y-117550000D01*
%TO.N,Net-(J10-Pad3)*%
X110750000Y-101750000D02*
X107750000Y-104750000D01*
X145750000Y-101750000D02*
X110750000Y-101750000D01*
X159000000Y-104715000D02*
X148715000Y-104715000D01*
X148715000Y-104715000D02*
X145750000Y-101750000D01*
X107750000Y-104750000D02*
X107750000Y-117550000D01*
%TO.N,Net-(J10-Pad2)*%
X110500000Y-100500000D02*
X107250000Y-103750000D01*
X147250000Y-100500000D02*
X110500000Y-100500000D01*
X159000000Y-102175000D02*
X148925000Y-102175000D01*
X148925000Y-102175000D02*
X147250000Y-100500000D01*
X107250000Y-103750000D02*
X107250000Y-117550000D01*
%TO.N,Net-(J10-Pad1)*%
X110115000Y-99635000D02*
X106750000Y-103000000D01*
X159000000Y-99635000D02*
X110115000Y-99635000D01*
X106750000Y-103000000D02*
X106750000Y-117550000D01*
%TO.N,Net-(C1-Pad2)*%
X110750000Y-117550000D02*
X110750000Y-116750000D01*
X110750000Y-116750000D02*
X111250000Y-116250000D01*
X112625000Y-114875000D02*
X111250000Y-116250000D01*
X111250000Y-116250000D02*
X111250000Y-117550000D01*
X111250000Y-119500000D02*
X111500000Y-119750000D01*
X111500000Y-119750000D02*
X112000000Y-120250000D01*
X111250000Y-119250000D02*
X111250000Y-119500000D01*
X112000000Y-120250000D02*
X113550000Y-120250000D01*
%TD*%
M02*
